<svg width="30" height="31" viewBox="0 0 30 31" fill="none" xmlns="http://www.w3.org/2000/svg">
<path d="M0 27.3718V8.60254H30V27.3718C30 29.0923 28.5789 30.5 26.8421 30.5H3.15789C1.42105 30.5 0 29.0923 0 27.3718Z" fill="#CFD8DC"/>
<path d="M30 5.4744V10.1667H0V5.4744C0 3.75388 1.42105 2.34619 3.15789 2.34619H26.8421C28.5789 2.34619 30 3.75388 30 5.4744Z" fill="#F44336"/>
<path d="M22.1057 7.82048C23.4138 7.82048 24.4741 6.77007 24.4741 5.47433C24.4741 4.17858 23.4138 3.12817 22.1057 3.12817C20.7977 3.12817 19.7373 4.17858 19.7373 5.47433C19.7373 6.77007 20.7977 7.82048 22.1057 7.82048Z" fill="#B71C1C"/>
<path d="M7.89479 7.82048C9.20283 7.82048 10.2632 6.77007 10.2632 5.47433C10.2632 4.17858 9.20283 3.12817 7.89479 3.12817C6.58675 3.12817 5.52637 4.17858 5.52637 5.47433C5.52637 6.77007 6.58675 7.82048 7.89479 7.82048Z" fill="#B71C1C"/>
<path d="M22.1053 0C21.2369 0 20.5264 0.703846 20.5264 1.5641V5.47436C20.5264 6.33462 21.2369 7.03846 22.1053 7.03846C22.9737 7.03846 23.6843 6.33462 23.6843 5.47436V1.5641C23.6843 0.703846 22.9737 0 22.1053 0Z" fill="#B0BEC5"/>
<path d="M7.89438 0C7.02596 0 6.31543 0.703846 6.31543 1.5641V5.47436C6.31543 6.33462 7.02596 7.03846 7.89438 7.03846C8.7628 7.03846 9.47332 6.33462 9.47332 5.47436V1.5641C9.47332 0.703846 8.7628 0 7.89438 0Z" fill="#B0BEC5"/>
<path d="M6.31543 13.2949H9.47332V16.4231H6.31543V13.2949Z" fill="#90A4AE"/>
<path d="M11.0527 13.2949H14.2106V16.4231H11.0527V13.2949Z" fill="#90A4AE"/>
<path d="M15.7891 13.2949H18.947V16.4231H15.7891V13.2949Z" fill="#90A4AE"/>
<path d="M20.5264 13.2949H23.6843V16.4231H20.5264V13.2949Z" fill="#90A4AE"/>
<path d="M6.31543 17.9873H9.47332V21.1155H6.31543V17.9873Z" fill="#90A4AE"/>
<path d="M11.0527 17.9873H14.2106V21.1155H11.0527V17.9873Z" fill="#90A4AE"/>
<path d="M15.7891 17.9873H18.947V21.1155H15.7891V17.9873Z" fill="#90A4AE"/>
<path d="M20.5264 17.9873H23.6843V21.1155H20.5264V17.9873Z" fill="#90A4AE"/>
<path d="M6.31543 22.6794H9.47332V25.8076H6.31543V22.6794Z" fill="#90A4AE"/>
<path d="M11.0527 22.6794H14.2106V25.8076H11.0527V22.6794Z" fill="#90A4AE"/>
<path d="M15.7891 22.6794H18.947V25.8076H15.7891V22.6794Z" fill="#90A4AE"/>
<path d="M20.5264 22.6794H23.6843V25.8076H20.5264V22.6794Z" fill="#90A4AE"/>
</svg>
