<svg width="30" height="30" viewBox="0 0 30 30" fill="none" xmlns="http://www.w3.org/2000/svg">
<path d="M27 6H15V9H28.75C28.3 7.95 27.7 6.9 27 6Z" fill="#ED4C5C"/>
<path d="M29.7 18C29.9 17.05 30 16.05 30 15H0C0 16.05 0.0999999 17.05 0.3 18H29.7Z" fill="#F9F9F9"/>
<path d="M15 0V3H24C21.5 1.1 18.4 0 15 0Z" fill="#ED4C5C"/>
<path d="M15 6H27C26.15 4.85 25.15 3.85 24 3H15V6Z" fill="#F9F9F9"/>
<path d="M28.75 9H15V12H29.7C29.5 10.95 29.15 9.95 28.75 9Z" fill="#F9F9F9"/>
<path d="M15 12V15H30C30 13.95 29.9 12.95 29.7 12H15Z" fill="#ED4C5C"/>
<path d="M1.25078 21H28.7508C29.1508 20.05 29.5008 19.05 29.7008 18H0.300781C0.500781 19.05 0.850781 20.05 1.25078 21Z" fill="#ED4C5C"/>
<path d="M3 24H27C27.7 23.1 28.3 22.05 28.75 21H1.25C1.7 22.05 2.3 23.1 3 24Z" fill="#F9F9F9"/>
<path d="M3 24C3.85 25.15 4.85 26.15 6 27H24C25.15 26.15 26.15 25.15 27 24H3Z" fill="#ED4C5C"/>
<path d="M6 27C8.5 28.9 11.6 30 15 30C18.4 30 21.5 28.9 24 27H6Z" fill="#F9F9F9"/>
<path d="M15 0C6.7 0 0 6.7 0 15H15V0Z" fill="#2A5F9E"/>
<path d="M9 10.1L11.8 12L10.75 8.95L13.5 7.05H10.05L9 4L7.95 7.05H4.5L7.25 8.95L6.2 12L9 10.1Z" fill="white"/>
</svg>
