<svg width="24" height="25" viewBox="0 0 24 25" fill="none" xmlns="http://www.w3.org/2000/svg">
<path d="M3 3.66675V8.66675H8" stroke="#FF5C00" stroke-width="2" stroke-linecap="round" stroke-linejoin="round"/>
<path d="M3.05 13.6668C3.27151 15.6727 4.1607 17.5458 5.57478 18.9855C6.98886 20.4252 8.84577 21.3479 10.8473 21.6054C12.8488 21.8629 14.8788 21.4402 16.6112 20.4053C18.3436 19.3704 19.678 17.7832 20.3999 15.8988C21.1219 14.0144 21.1896 11.9419 20.5921 10.0144C19.9947 8.08687 18.7668 6.41605 17.1056 5.27028C15.4444 4.12451 13.4463 3.57029 11.4322 3.69661C9.41817 3.82294 7.50501 4.62248 6 5.96684L3 8.66684" stroke="#FF5C00" stroke-width="2" stroke-linecap="round" stroke-linejoin="round"/>
<path d="M12 7.66675V12.6667L16 14.6667" stroke="#FF5C00" stroke-width="2" stroke-linecap="round" stroke-linejoin="round"/>
</svg>
